<?xml version="1.0" encoding="UTF-8" standalone="no"?>
<svg xmlns="http://www.w3.org/2000/svg" viewBox="0 0 1000 500" width="100%" height="100%" fill="none" style="background-color:#000000;">
    <path d="M 0 250 Q 50 200, 100 250 T 200 250 T 300 250 T 400 250 T 500 250 T 600 250 T 700 250 T 800 250 T 900 250 T 1000 250 V 500 H 0 Z" fill="#FFFFFF" />
    <path d="M 0 270 Q 50 220, 100 270 T 200 270 T 300 270 T 400 270 T 500 270 T 600 270 T 700 270 T 800 270 T 900 270 T 1000 270 V 500 H 0 Z" fill="#FFFFFF" />
    <path d="M 0 290 Q 50 240, 100 290 T 200 290 T 300 290 T 400 290 T 500 290 T 600 290 T 700 290 T 800 290 T 900 290 T 1000 290 V 500 H 0 Z" fill="#FFFFFF" />
    <path d="M 0 310 Q 50 260, 100 310 T 200 310 T 300 310 T 400 310 T 500 310 T 600 310 T 700 310 T 800 310 T 900 310 T 1000 310 V 500 H 0 Z" fill="#FFFFFF" />
    <path d="M 0 330 Q 50 280, 100 330 T 200 330 T 300 330 T 400 330 T 500 330 T 600 330 T 700 330 T 800 330 T 900 330 T 1000 330 V 500 H 0 Z" fill="#FFFFFF" />
    <path d="M 0 350 Q 50 300, 100 350 T 200 350 T 300 350 T 400 350 T 500 350 T 600 350 T 700 350 T 800 350 T 900 350 T 1000 350 V 500 H 0 Z" fill="#FFFFFF" />
    <path d="M 0 370 Q 50 320, 100 370 T 200 370 T 300 370 T 400 370 T 500 370 T 600 370 T 700 370 T 800 370 T 900 370 T 1000 370 V 500 H 0 Z" fill="#FFFFFF" />
    <path d="M 0 390 Q 50 340, 100 390 T 200 390 T 300 390 T 400 390 T 500 390 T 600 390 T 700 390 T 800 390 T 900 390 T 1000 390 V 500 H 0 Z" fill="#FFFFFF" />
    <path d="M 0 410 Q 50 360, 100 410 T 200 410 T 300 410 T 400 410 T 500 410 T 600 410 T 700 410 T 800 410 T 900 410 T 1000 410 V 500 H 0 Z" fill="#FFFFFF" />
    <path d="M 0 430 Q 50 380, 100 430 T 200 430 T 300 430 T 400 430 T 500 430 T 600 430 T 700 430 T 800 430 T 900 430 T 1000 430 V 500 H 0 Z" fill="#FFFFFF" />
    <path d="M 0 450 Q 50 400, 100 450 T 200 450 T 300 450 T 400 450 T 500 450 T 600 450 T 700 450 T 800 450 T 900 450 T 1000 450 V 500 H 0 Z" fill="#FFFFFF" />
    <path d="M 0 470 Q 50 420, 100 470 T 200 470 T 300 470 T 400 470 T 500 470 T 600 470 T 700 470 T 800 470 T 900 470 T 1000 470 V 500 H 0 Z" fill="#FFFFFF" />
</svg>
